<?xml version="1.0" encoding="UTF-8"?>
<svg width="240px" height="240px" viewBox="0 0 240 240" version="1.1" xmlns="http://www.w3.org/2000/svg" xmlns:xlink="http://www.w3.org/1999/xlink">
    <g stroke="none" stroke-width="1" fill="none" fill-rule="evenodd">
        <g transform="translate(25.000000, 30.000000)">
            <!-- 背景气泡 -->
            <ellipse fill="#F8F8F8" cx="95" cy="120" rx="95" ry="60"></ellipse>
            
            <!-- 对话框 -->
            <rect fill="#FFFFFF" x="20" y="10" width="150" height="110" rx="15"></rect>
            <rect fill="#FFFFFF" stroke="#EFEFEF" stroke-width="1" x="20.5" y="10.5" width="149" height="109" rx="14.5"></rect>
            
            <!-- 对话框尖角 -->
            <path d="M50,120 L65,110 L80,120 Z" fill="#FFFFFF"></path>
            <path d="M50,120 L65,110 L80,120 Z" stroke="#EFEFEF" stroke-width="1" fill="#FFFFFF"></path>
            
            <!-- 消息气泡 -->
            <rect fill="#FF8C00" x="90" y="30" width="60" height="24" rx="12"></rect>
            <rect fill="#F0F0F0" x="40" y="64" width="80" height="24" rx="12"></rect>
            
            <!-- 装饰元素 -->
            <circle fill="#FF8C00" opacity="0.1" cx="40" cy="30" r="12"></circle>
            <circle fill="#FF8C00" opacity="0.1" cx="150" cy="80" r="8"></circle>
            <circle fill="#FF8C00" opacity="0.1" cx="110" cy="100" r="5"></circle>
            
            <!-- 图标 -->
            <g transform="translate(80.000000, 160.000000)" fill="#CCCCCC">
                <path d="M15,0 C23.2842712,0 30,6.71572875 30,15 C30,23.2842712 23.2842712,30 15,30 C6.71572875,30 0,23.2842712 0,15 C0,6.71572875 6.71572875,0 15,0 Z M15,4 C8.92486775,4 4,8.92486775 4,15 C4,21.0751322 8.92486775,26 15,26 C21.0751322,26 26,21.0751322 26,15 C26,8.92486775 21.0751322,4 15,4 Z M15,8 C15.5522847,8 16,8.44771525 16,9 L16,14 L21,14 C21.5522847,14 22,14.4477153 22,15 C22,15.5522847 21.5522847,16 21,16 L16,16 L16,21 C16,21.5522847 15.5522847,22 15,22 C14.4477153,22 14,21.5522847 14,21 L14,16 L9,16 C8.44771525,16 8,15.5522847 8,15 C8,14.4477153 8.44771525,14 9,14 L14,14 L14,9 C14,8.44771525 14.4477153,8 15,8 Z" fill-rule="nonzero"></path>
            </g>
        </g>
    </g>
</svg> 