<?xml version="1.0" encoding="UTF-8"?>
<svg width="24px" height="24px" viewBox="0 0 24 24" version="1.1" xmlns="http://www.w3.org/2000/svg" xmlns:xlink="http://www.w3.org/1999/xlink">
    <title>Image</title>
    <g id="Page-1" stroke="none" stroke-width="1" fill="none" fill-rule="evenodd">
        <g id="image" fill="#FF6700" fill-rule="nonzero">
            <path d="M19,2 L5,2 C3.3,2 2,3.3 2,5 L2,19 C2,20.7 3.3,22 5,22 L19,22 C20.7,22 22,20.7 22,19 L22,5 C22,3.3 20.7,2 19,2 Z M20,19 C20,19.6 19.6,20 19,20 L5,20 C4.4,20 4,19.6 4,19 L4,5 C4,4.4 4.4,4 5,4 L19,4 C19.6,4 20,4.4 20,5 L20,19 Z" id="Shape"></path>
            <path d="M16,11.4 C15.7,11.4 15.4,11.3 15.2,11.1 L12.8,8.7 C12.4,8.3 12.4,7.7 12.8,7.3 C13.2,6.9 13.8,6.9 14.2,7.3 L16.6,9.7 C17,10.1 17,10.7 16.6,11.1 C16.4,11.3 16.2,11.4 16,11.4 Z" id="Path"></path>
            <path d="M10,11.4 C9.8,11.4 9.6,11.3 9.4,11.1 L7,8.7 C6.6,8.3 6.6,7.7 7,7.3 C7.4,6.9 8,6.9 8.4,7.3 L10.8,9.7 C11.2,10.1 11.2,10.7 10.8,11.1 C10.6,11.3 10.3,11.4 10,11.4 Z" id="Path"></path>
            <path d="M8,18 C7.7,18 7.5,17.9 7.3,17.7 C6.9,17.3 6.9,16.7 7.3,16.3 L11.3,12.3 C11.7,11.9 12.3,11.9 12.7,12.3 L14,13.6 L16.3,11.3 C16.7,10.9 17.3,10.9 17.7,11.3 C18.1,11.7 18.1,12.3 17.7,12.7 L14.7,15.7 C14.3,16.1 13.7,16.1 13.3,15.7 L12,14.4 L8.7,17.7 C8.5,17.9 8.3,18 8,18 Z" id="Path"></path>
        </g>
    </g>
</svg>
