<svg xmlns="http://www.w3.org/2000/svg" viewBox="0 0 512 512" fill="#ff6700"><path d="M240.1 4.2c9.8-5.6 21.9-5.6 31.8 0l171.8 98.1c4.9 2.8 8.3 7.9 8.3 13.7c0 5.9-3.4 11-8.3 13.8L272 227.8c-9.8 5.6-21.9 5.6-31.8 0L68.3 129.8c-4.9-2.8-8.3-7.9-8.3-13.8c0-5.9 3.4-11 8.3-13.7L240.1 4.2zM64 224h16v192H64V224zm64 0h32v192h-32V224zm96 0h32v192h-32V224zm96 0h32v192h-32V224zm64 0h16v192h-16V224zM48 160c13.3 0 24 10.7 24 24v8H40v16H24V184c0-13.3 10.7-24 24-24zm416 0c13.3 0 24 10.7 24 24v48H472v-16h-8v-8c0-13.3 10.7-24 24-24zM48 416h16v32H48c-8.8 0-16-7.2-16-16s7.2-16 16-16zm416 0h16c8.8 0 16 7.2 16 16s-7.2 16-16 16H464V416zM64 472c0 4.4 3.6 8 8 8H440c4.4 0 8-3.6 8-8v-8H64v8z"/></svg>
