<svg width="48" height="48" viewBox="0 0 24 24" fill="none" xmlns="http://www.w3.org/2000/svg">
  <path fill-rule="evenodd" clip-rule="evenodd" d="M4 11.5C4 7.35786 7.58172 4 12 4H13C15.0843 4.11502 17.053 4.99479 18.5291 6.47089C19.7924 7.73426 20.5777 9.37609 20.8085 11.1508C20.9345 12.1603 20.8633 13.1856 20.6 14.1547L21.7113 18.2887L17.5773 17.1774C16.6082 17.4407 15.5829 17.5119 14.5734 17.3859C12.7987 17.1551 11.1569 16.3698 9.89351 15.1065C8.64413 13.8571 7.82335 12.2721 7.61743 10.5705C7.53772 9.83672 7.53772 9.09655 7.61743 8.36275C7.20001 9.27543 7 10.2751 7 11.5C7 12.8199 7.30837 14.1219 7.90344 15.3L6 21L11.7 19.1C12.8781 19.6951 14.1801 20.0034 15.5 20C17.0782 19.9994 18.6251 19.5594 19.9674 18.7293C21.3098 17.8992 22.3944 16.7118 23.1 15.3C23.6951 14.1219 24.0034 12.8199 24 11.5V11C23.885 8.91568 23.0052 6.94699 21.5291 5.47089C20.053 3.99479 18.0843 3.11502 16 3H15.5C11.0817 3 7.5 6.35786 7.5 10.5V10C7.5 9.67943 7.52137 9.36422 7.56267 9.05615C6.6054 9.76544 5.81983 10.6659 5.27072 11.6826C4.44061 13.0249 4.00061 14.5718 4 16.15C4 16.15 4 16.15 4 16.15V11.5Z" fill="#ff6700"/>
</svg> 